<?xml version="1.0" standalone="no"?>
<!DOCTYPE svg PUBLIC "-//W3C//DTD SVG 20010904//EN"
 "http://www.w3.org/TR/2001/REC-SVG-20010904/DTD/svg10.dtd">
<svg version="1.0" xmlns="http://www.w3.org/2000/svg"
 viewBox="0 0 512.000000 512.000000"
 preserveAspectRatio="xMidYMid meet">

<g transform="translate(0.000000,512.000000) scale(0.100000,-0.100000)"
fill="#000000" stroke="none">
<path d="M732 4623 c-18 -9 -45 -32 -60 -51 l-27 -35 -3 -364 c-3 -406 -3
-409 66 -461 51 -39 133 -39 184 0 65 50 68 66 68 352 l0 256 256 0 c286 0
302 3 352 68 22 29 27 46 27 92 0 46 -5 63 -27 92 -51 67 -55 68 -450 68 -306
0 -357 -3 -386 -17z"/>
<path d="M2503 4625 c-18 -7 -543 -378 -1166 -824 -1054 -752 -1136 -813
-1151 -851 -20 -52 -20 -75 3 -126 32 -71 98 -104 176 -90 24 5 364 242 1107
773 590 422 1080 767 1088 767 8 0 497 -344 1085 -764 589 -420 1089 -771
1111 -779 35 -13 48 -13 84 -2 117 35 155 173 72 260 -35 37 -2222 1598 -2281
1628 -51 26 -82 28 -128 8z"/>
<path d="M732 2703 c-18 -9 -45 -32 -60 -51 l-27 -35 -3 -846 c-1 -544 1 -864
8 -900 34 -186 196 -348 381 -381 35 -7 228 -10 501 -8 l445 3 35 27 c70 54
68 31 68 672 l0 576 480 0 480 0 0 -576 c0 -641 -2 -618 68 -672 l35 -27 445
-3 c276 -2 465 1 500 8 133 24 276 130 336 248 56 111 56 105 56 1015 0 932 4
880 -66 934 -70 53 -167 37 -222 -35 l-27 -35 -5 -858 c-5 -847 -5 -858 -26
-885 -11 -15 -33 -37 -48 -48 -26 -20 -42 -21 -376 -24 l-350 -3 -2 589 -3
589 -27 35 c-54 71 -20 68 -768 68 -748 0 -714 3 -768 -68 l-27 -35 -3 -589
-2 -589 -350 3 c-334 3 -350 4 -376 24 -15 11 -37 33 -48 48 -21 27 -21 38
-26 885 l-5 858 -27 35 c-49 64 -128 85 -196 51z"/>
</g>
</svg>
