<?xml version="1.0" standalone="no"?>
<!DOCTYPE svg PUBLIC "-//W3C//DTD SVG 20010904//EN"
 "http://www.w3.org/TR/2001/REC-SVG-20010904/DTD/svg10.dtd">
<svg version="1.0" xmlns="http://www.w3.org/2000/svg"
 viewBox="0 0 512.000000 512.000000"
 preserveAspectRatio="xMidYMid meet">

<g transform="translate(0.000000,512.000000) scale(0.100000,-0.100000)"
fill="#000000" stroke="none">
<path d="M1285 4470 c-164 -33 -300 -138 -374 -286 -59 -119 -56 -35 -56
-1624 0 -1589 -3 -1503 56 -1625 59 -119 162 -211 299 -265 l65 -25 885 0
c815 0 892 1 975 18 505 102 899 447 1060 930 72 216 70 170 70 1362 0 1160 2
1109 -56 1230 -59 120 -161 211 -295 263 l-69 27 -1260 2 c-693 0 -1278 -3
-1300 -7z m2577 -232 c75 -35 141 -104 168 -174 20 -55 20 -64 18 -1092 l-3
-1037 -27 -50 c-60 -114 -139 -160 -307 -179 -73 -9 -139 -23 -172 -37 -206
-86 -316 -242 -338 -480 -12 -125 -38 -185 -107 -248 -99 -91 -45 -86 -969
-86 l-810 0 -57 27 c-75 35 -141 104 -167 174 -21 54 -21 65 -21 1504 0 1398
1 1452 19 1500 37 98 116 168 220 196 36 10 321 12 1271 11 l1225 -2 57 -27z
m74 -2724 c-16 -42 -92 -158 -151 -231 -96 -120 -235 -232 -374 -303 -40 -20
-43 -20 -36 -3 19 48 27 86 35 178 21 219 124 322 341 339 42 4 96 13 120 20
60 19 72 19 65 0z"/>
<path d="M1739 3381 c-47 -48 -37 -130 21 -164 26 -15 98 -17 800 -17 702 0
774 2 800 17 58 34 68 116 21 164 l-29 29 -792 0 -792 0 -29 -29z"/>
<path d="M1739 2741 c-47 -48 -37 -130 21 -164 26 -15 98 -17 800 -17 702 0
774 2 800 17 58 34 68 116 21 164 l-29 29 -792 0 -792 0 -29 -29z"/>
<path d="M1739 2101 c-47 -48 -37 -130 21 -164 25 -15 83 -17 585 -17 619 0
603 -2 631 67 19 43 5 93 -33 123 -25 20 -39 20 -600 20 l-575 0 -29 -29z"/>
</g>
</svg>
