<?xml version="1.0" standalone="no"?>
<!DOCTYPE svg PUBLIC "-//W3C//DTD SVG 20010904//EN"
 "http://www.w3.org/TR/2001/REC-SVG-20010904/DTD/svg10.dtd">
<svg version="1.0" xmlns="http://www.w3.org/2000/svg"
 viewBox="0 0 512.000000 512.000000"
 preserveAspectRatio="xMidYMid meet">

<g transform="translate(0.000000,512.000000) scale(0.100000,-0.100000)"
fill="#000000" stroke="none">
<path d="M1760 4836 c-544 -79 -996 -387 -1272 -867 -85 -148 -164 -375 -193
-554 -86 -521 73 -1055 431 -1443 252 -274 577 -453 959 -529 140 -28 473 -25
620 4 153 31 279 74 421 142 112 54 286 160 301 183 3 6 267 -251 587 -570
402 -403 592 -586 618 -597 21 -8 61 -15 91 -15 112 0 197 78 205 189 8 112
32 83 -603 721 l-582 585 59 85 c132 191 226 417 275 665 25 128 25 472 0 600
-71 355 -220 646 -456 888 -252 259 -544 420 -895 493 -153 31 -419 41 -566
20z m493 -441 c248 -56 466 -175 642 -351 185 -184 302 -403 356 -667 26 -126
28 -339 5 -469 -95 -530 -518 -951 -1050 -1045 -121 -21 -325 -21 -441 1 -476
89 -856 419 -1003 871 -178 544 28 1144 503 1465 146 99 333 174 509 205 103
18 381 13 479 -10z"/>
</g>
</svg>
